<?xml version="1.0" encoding="utf-8"?>
<!-- Generator: Adobe Illustrator 27.1.1, SVG Export Plug-In . SVG Version: 6.00 Build 0)  -->
<svg version="1.1" id="Calque_2_00000084504197215113949740000007033949963542636988_"
	 xmlns="http://www.w3.org/2000/svg" xmlns:xlink="http://www.w3.org/1999/xlink" x="0px" y="0px" viewBox="0 0 41.9 41.9">
<g class="st0" style="display: none;">
	<g class="st1" style="display: inline;">
		<line class="st2" style="fill:none;stroke:#010202;stroke-miterlimit:10;" x1="4.6" y1="30.5" x2="32.9" y2="30.5"/>
		<g>
			<polygon class="st3" points="7,33.4 7.4,32.9 4.9,30.5 7.4,28.2 7,27.7 3.9,30.5 			"/>
		</g>
		<g>
			<polygon class="st3" points="30.6,33.4 30.1,32.9 32.6,30.5 30.1,28.2 30.6,27.7 33.6,30.5 			"/>
		</g>
	</g>
</g>
<g>
	<g>
		<line class="st2" style="fill:none;stroke:#010202;stroke-miterlimit:10;" x1="36.4" y1="31.1" x2="36.4" y2="10.8"/>
		<g>
			<polygon class="st3" style="fill:#010202;" points="39.3,28.8 38.8,28.3 36.4,30.8 34.1,28.3 33.5,28.8 36.4,31.8 			"/>
		</g>
		<g>
			<polygon class="st3" style="fill:#010202;" points="39.3,13.1 38.8,13.6 36.4,11.1 34.1,13.6 33.5,13.1 36.4,10.1 			"/>
		</g>
	</g>
</g>
<path class="st2" style="fill:none;stroke:#010202;stroke-miterlimit:10" d="M3.5,22.8c-0.1,0-0.2-0.2,0-0.3c3.2-1,20.7-6.5,24.5-7.7c0.4-0.1,0.9,0,1,0.2c1,2,2.8,9.5,0.1,12.9
	c-0.2,0.3-0.8,0.4-1.2,0.3C23.7,27.4,6.7,23.5,3.5,22.8z"/>
</svg>
