<svg xmlns="http://www.w3.org/2000/svg" width="18.87" height="15.22" viewBox="0 0 18.87 15.22">
  <g id="Groupe_3954" data-name="Groupe 3954" transform="translate(-8.999 34.934)">
    <g id="Groupe_3952" data-name="Groupe 3952">
      <g id="Groupe_3398" data-name="Groupe 3398" transform="translate(21.297 -20.65)">
        <path id="Tracé_2004" data-name="Tracé 2004" d="M0,0A5.793,5.793,0,0,0,2.25-3.451a2.122,2.122,0,0,0,1-2.057A2.621,2.621,0,0,0,2.784-7.36a.968.968,0,0,0-.624-.32,18.044,18.044,0,0,0,.268-2.88c-.045-1.508-.758-2.468-1.894-2.1a8.8,8.8,0,0,0-6.548-1.486c.044.16.2.64.245.891A3.334,3.334,0,0,0-7.44-13.6a4.142,4.142,0,0,0-.067,2.354A12.983,12.983,0,0,0-7.841-7.68a.976.976,0,0,0-.646.3,2.568,2.568,0,0,0-.49,1.875,2.121,2.121,0,0,0,1,2.057A5.737,5.737,0,0,0-5.725-.023l.758.457a4.738,4.738,0,0,0,2.116.5A4.553,4.553,0,0,0-.78.434ZM-2.873.023A4.52,4.52,0,0,1-7.15-3.886a.464.464,0,0,0-.334-.366c-.067-.022-.6-.2-.6-1.279,0-.938.156-1.166.245-1.235a.111.111,0,0,0,.067-.022,5.12,5.12,0,0,0,.112.708.215.215,0,0,0,.2.16h.356a.2.2,0,0,0,.2-.229,6.008,6.008,0,0,1,.735-3.5,7.074,7.074,0,0,0,6.593.023A5.708,5.708,0,0,1,1.18-6.149a.223.223,0,0,0,.2.229H1.67a.184.184,0,0,0,.2-.183c.022-.16.067-.411.134-.708.044,0,.111,0,.133.045.045.046.223.275.223,1.212,0,1.074-.557,1.257-.6,1.28a.434.434,0,0,0-.335.366A4.542,4.542,0,0,1-2.873.023Z" />
      </g>
      <g id="Groupe_3399" data-name="Groupe 3399" transform="translate(17.6 -26.844)">
        <path id="Tracé_2005" data-name="Tracé 2005" d="M0,0A.79.79,0,0,1-.78.8.79.79,0,0,1-1.559,0,.79.79,0,0,1-.78-.8.79.79,0,0,1,0,0" />
      </g>
      <g id="Groupe_3400" data-name="Groupe 3400" transform="translate(20.83 -26.844)">
        <path id="Tracé_2006" data-name="Tracé 2006" d="M0,0A.79.79,0,0,1-.78.8.79.79,0,0,1-1.559,0,.79.79,0,0,1-.78-.8.79.79,0,0,1,0,0" />
      </g>
      <g id="Groupe_3401" data-name="Groupe 3401" transform="translate(19.537 -23.828)">
        <path id="Tracé_2007" data-name="Tracé 2007" d="M0,0A1.832,1.832,0,0,1-2.227,0a.313.313,0,0,0-.446-.046.331.331,0,0,0-.044.457,2.128,2.128,0,0,0,1.6.64A2.129,2.129,0,0,0,.49.411.332.332,0,0,0,.445-.046.334.334,0,0,0,0,0" />
      </g>
      <g id="Groupe_3402" data-name="Groupe 3402" transform="translate(9.469 -30.318)">
        <path id="Tracé_2008" data-name="Tracé 2008" d="M0,0A.478.478,0,0,0,.468-.48v-1.9H2.317a.477.477,0,0,0,.467-.48.491.491,0,0,0-.467-.48H0a.477.477,0,0,0-.468.48v2.4A.445.445,0,0,0,0,0Z" />
      </g>
      <g id="Groupe_3403" data-name="Groupe 3403" transform="translate(27.379 -33.701)">
        <path id="Tracé_2009" data-name="Tracé 2009" d="M0,0H-2.339a.478.478,0,0,0-.468.48.492.492,0,0,0,.468.48H-.49v1.9a.476.476,0,0,0,.468.48.477.477,0,0,0,.468-.48V.5A.44.44,0,0,0,0,0" />
      </g>
      <g id="Groupe_3404" data-name="Groupe 3404" transform="translate(27.379 -23.805)">
        <path id="Tracé_2010" data-name="Tracé 2010" d="M0,0A.478.478,0,0,0-.468.48v1.9H-2.317a.477.477,0,0,0-.467.48.491.491,0,0,0,.467.48H.022a.477.477,0,0,0,.468-.48V.5A.5.5,0,0,0,0,0Z" />
      </g>
    </g>
    <g id="Groupe_3405" data-name="Groupe 3405" transform="translate(12.275 -20.902)">
      <path id="Tracé_2011" data-name="Tracé 2011" d="M0,0A.477.477,0,0,0-.468-.48H-2.317v-1.9a.476.476,0,0,0-.467-.48.492.492,0,0,0-.468.48v2.4A.477.477,0,0,0-2.784.5H-.446A.514.514,0,0,0,0,0Z" />
    </g>
  </g>
</svg>
