<svg xmlns="http://www.w3.org/2000/svg" width="40.252" height="14.326" viewBox="0 0 40.252 14.326">
  <g id="Groupe_3951" data-name="Groupe 3951" transform="translate(-18.923 144.052)">
    <g id="Groupe_3407" data-name="Groupe 3407" transform="translate(57.898 -144.051)">
      <path id="Tracé_2013" data-name="Tracé 2013" d="M0,0H-37.7a1.265,1.265,0,0,0-1.276,1.25V13.076A1.264,1.264,0,0,0-37.7,14.325H0a1.264,1.264,0,0,0,1.276-1.249V1.249A1.265,1.265,0,0,0,0,0ZM-32.915,12.827h-4.529V1.5h4.529Zm32.66,0H-31.383V1.5H-.255ZM-35.179,6.8a1.91,1.91,0,0,0,1.928-1.887,1.911,1.911,0,0,0-1.928-1.888,1.911,1.911,0,0,0-1.929,1.888A1.91,1.91,0,0,0-35.179,6.8m0-2.276a.393.393,0,0,1,.4.389.394.394,0,0,1-.4.388.393.393,0,0,1-.4-.388.394.394,0,0,1,.4-.389m1.408,6.024a.757.757,0,0,1-.765.749h-1.286a.757.757,0,0,1-.766-.749.758.758,0,0,1,.766-.75h1.286a.757.757,0,0,1,.765.75" />
    </g>
    <g id="Groupe">
      <text id="A" transform="translate(27.243 -135.057)" font-size="5" font-family="'DIN \32 014'" font-weight="700"><tspan x="0" y="0">A</tspan></text>
      <text id="A_-_123_-_A" data-name="A - 123 - A" transform="translate(30.444 -135.057)" font-size="5" font-family="'DIN \32 014'" font-weight="700"><tspan x="0" y="0">A - 123 - A</tspan></text>
      <text id="A-2" data-name="A" transform="translate(53.377 -135.057)" font-size="5" font-family="'DIN \32 014'" font-weight="700"><tspan x="0" y="0">A</tspan></text>
    </g>
  </g>
</svg>
