<?xml version="1.0" encoding="utf-8"?>
<!-- Generator: Adobe Illustrator 27.1.1, SVG Export Plug-In . SVG Version: 6.00 Build 0)  -->
<svg version="1.1" id="Calque_2_00000084504197215113949740000007033949963542636988_"
	 xmlns="http://www.w3.org/2000/svg" xmlns:xlink="http://www.w3.org/1999/xlink" x="0px" y="0px" viewBox="0 0 41.9 41.9"
	 style="enable-background:new 0 0 41.9 41.9;" xml:space="preserve">
<g>
	<g>
		<line class="st0" style="fill:none;stroke:#010202;stroke-miterlimit:10;" x1="6.8" y1="29.4" x2="35.1" y2="29.4"/>
		<g>
			<polygon class="st1" style="fill:#010202;" points="9.2,32.3 9.6,31.8 7.1,29.4 9.6,27.1 9.2,26.6 6.1,29.4 			"/>
		</g>
		<g>
			<polygon class="st1" style="fill:#010202;" points="32.8,32.3 32.3,31.8 34.8,29.4 32.3,27.1 32.8,26.6 35.8,29.4 			"/>
		</g>
	</g>
</g>
<g class="st2" style="display:none;">
	<g class="st3" style="display:inline;">
		<line class="st0" style="fill:none;stroke:#010202;stroke-miterlimit:10;" x1="36.4" y1="27" x2="36.4" y2="6.7"/>
		<g>
			<polygon class="st1" style="fill:#010202;" points="39.3,24.7 38.8,24.2 36.4,26.7 34.1,24.2 33.5,24.7 36.4,27.7 			"/>
		</g>
		<g>
			<polygon class="st1" style="fill:#010202;" points="39.3,9 38.8,9.5 36.4,7 34.1,9.5 33.5,9 36.4,6 			"/>
		</g>
	</g>
</g>
<path class="st0" style="fill:none;stroke:#010202;stroke-miterlimit:10;" d="M7.5,17.6c-0.1,0-0.2-0.2,0-0.3c3.2-1,20.7-6.5,24.5-7.7c0.4-0.1,0.9,0,1,0.2c1,2,2.8,9.5,0.1,12.9
	c-0.2,0.3-0.8,0.4-1.2,0.3C27.7,22.2,10.7,18.3,7.5,17.6z"/>
</svg>
