<svg xmlns="http://www.w3.org/2000/svg" width="26.355" height="15.591" viewBox="0 0 26.355 15.591">
  <g id="Groupe_3953" data-name="Groupe 3953" transform="translate(-53.15 28.813)">
    <g id="Groupe_3408" data-name="Groupe 3408" transform="translate(68.691 -27.84)">
      <path id="Tracé_2014" data-name="Tracé 2014" d="M0,0A1.457,1.457,0,0,0-1.386-.973H-12.124A1.467,1.467,0,0,0-13.51,0l-1.924,5.468a2,2,0,0,0-.107.636v6.9a1.453,1.453,0,0,0,1.458,1.447h.006a1.452,1.452,0,0,0,1.464-1.44v-.49H-.9v.483a1.464,1.464,0,1,0,2.928,0V6.1a2.025,2.025,0,0,0-.106-.636ZM-12.124,9.632a1.444,1.444,0,0,1-1.424-1.464,1.443,1.443,0,0,1,1.459-1.429,1.443,1.443,0,0,1,1.424,1.448,1.451,1.451,0,0,1-1.457,1.446h0Zm10.738,0A1.444,1.444,0,0,1-2.805,8.163,1.443,1.443,0,0,1-1.342,6.739,1.444,1.444,0,0,1,.078,8.185,1.452,1.452,0,0,1-1.378,9.633h-.008Zm-12.2-4.82,1.24-3.683a.988.988,0,0,1,.922-.661H-2.1a.988.988,0,0,1,.922.661L.067,4.812Z" />
    </g>
    <g id="Groupe_3409" data-name="Groupe 3409" transform="translate(76.594 -25.402)">
      <path id="Tracé_2015" data-name="Tracé 2015" d="M0,0A1.7,1.7,0,0,0,1.7-1.706,1.7,1.7,0,0,0,0-3.409a1.7,1.7,0,0,0-1.7,1.7A1.7,1.7,0,0,0-.011,0ZM1.942,11.206a.975.975,0,0,1-.971.974H-.971a.975.975,0,0,1-.971-.974v-3.9a.976.976,0,0,1-.972-.974V2.922A1.951,1.951,0,0,1-.971.975H.97A1.95,1.95,0,0,1,2.912,2.922V6.333a.975.975,0,0,1-.971.974Z" />
    </g>
  </g>
</svg>
