<?xml version="1.0" encoding="utf-8"?>
<!-- Generator: Adobe Illustrator 27.1.1, SVG Export Plug-In . SVG Version: 6.00 Build 0)  -->
<svg version="1.1" id="Calque_2_00000084504197215113949740000007033949963542636988_"
	 xmlns="http://www.w3.org/2000/svg" xmlns:xlink="http://www.w3.org/1999/xlink" x="0px" y="0px" viewBox="0 0 41.9 41.9"
	 style="enable-background:new 0 0 41.9 41.9;" xml:space="preserve">
<style type="text/css">
	.st0{fill:#010202;}
	.st1{fill:none;stroke:#010202;stroke-miterlimit:10;}
</style>
<g>
	<path class="st0" d="M31,11.8H9.9c-0.9,0-1.7,0.8-1.7,1.7v3.4c0,0.4,0.1,0.7,0.3,0.9l2.6,3.8c0.3,0.5,0.8,0.8,1.4,0.8h0.8
		c0.2,1.3,0.7,3.7,2.3,5.3c1.2,1.2,2.9,1.9,4.9,1.9s3.7-0.7,4.9-1.9c1.7-1.7,2.2-4.1,2.3-5.3h0.8c0.6,0,1-0.3,1.4-0.8l2.6-3.8
		c0.2-0.3,0.3-0.7,0.3-0.9v-3.4C32.7,12.5,32,11.8,31,11.8z M28.3,20.3H12.7l-2.5-3.7v-3.1h20.7v3.1L28.3,20.3z M15.2,22.2h10.6
		c-0.1,1-0.6,2.8-1.7,4c-0.8,0.8-2.1,1.3-3.5,1.3h-0.1c-1.5,0-2.6-0.5-3.5-1.3C15.8,25,15.3,23.3,15.2,22.2z"/>
	<circle class="st0" cx="20.5" cy="25.3" r="1.5"/>
</g>
<g>
	<g>
		<path class="st1" d="M22,3c8.6,0,15.6,6.8,16.1,15.3"/>
		<g>
			<polygon class="st0" points="34.8,16.1 35.3,15.5 38,18 40.3,15.1 40.9,15.5 38.1,19.1 			"/>
		</g>
	</g>
</g>
<g>
	<g>
		<path class="st1" d="M4.8,21.1c0.4,8.5,7.5,15.3,16.1,15.3"/>
		<g>
			<polygon class="st0" points="2,23.8 2.6,24.3 4.9,21.3 7.6,23.8 8.1,23.3 4.8,20.2 			"/>
		</g>
	</g>
</g>
</svg>
